PathFileType  4	(X/Y/Z) C:\Users\wagnerel85475\Documents\Thesis\opencap-core\Data\3375ffbc-daeb-4a43-b4f7-ac9899cd4c71\MarkerData\PreAugmentation
DataRate	CameraRate	NumFrames	NumMarkers	Units	OrigDataRate	OrigDataStartFrame	OrigNumFrames
60.0	60.0	17	20	m	60.0	439	584
Frame#	Time	Neck			RShoulder			RElbow			RWrist			LShoulder			LElbow			LWrist			midHip			RHip			RKnee			RAnkle			LHip			LKnee			LAnkle			LBigToe			LSmallToe			LHeel			RBigToe			RSmallToe			RHeel			
		X1	Y1	Z1	X2	Y2	Z2	X3	Y3	Z3	X4	Y4	Z4	X5	Y5	Z5	X6	Y6	Z6	X7	Y7	Z7	X8	Y8	Z8	X9	Y9	Z9	X10	Y10	Z10	X11	Y11	Z11	X12	Y12	Z12	X13	Y13	Z13	X14	Y14	Z14	X15	Y15	Z15	X16	Y16	Z16	X17	Y17	Z17	X18	Y18	Z18	X19	Y19	Z19	X20	Y20	Z20	

439	7.3000000	1.4067200	0.6565600	-0.0860200	1.4128700	0.6521300	0.0879200	1.2722900	0.4134800	0.3211900	1.4377400	0.1709600	0.2710000	1.3955800	0.6477500	-0.2492600	1.3607400	0.3653800	-0.3835600	1.4239000	0.0556600	-0.4541400	0.9223300	0.4541700	-0.0876900	0.9513900	0.4501800	0.0357400	1.2864600	0.2399000	0.1178400	0.9492800	-0.1619900	0.1074900	0.9288500	0.4656800	-0.2168400	1.2433000	0.2638800	-0.3273600	1.0384900	-0.1069000	-0.2688900	1.2219600	-0.1616500	-0.3151700	1.0397100	-0.2392900	-0.4191300	0.9619700	-0.1488000	-0.2658300	1.0931900	-0.2401000	0.2033700	1.0727500	-0.2352700	0.2165700	0.8894300	-0.2006300	0.0952300
440	7.3166667	1.4177900	0.6971200	-0.0797100	1.4133200	0.6894400	0.0888100	1.2549800	0.4477400	0.3192700	1.3943600	0.2034900	0.2935500	1.3950000	0.6811800	-0.2496900	1.3494000	0.4093700	-0.3742700	1.3704300	0.0806800	-0.4634300	0.9426800	0.4745700	-0.0856700	0.9755000	0.4709900	0.0411800	1.2796100	0.2392400	0.1174400	0.9565000	-0.1588800	0.1028600	0.9362700	0.4790700	-0.2147200	1.2542900	0.2795600	-0.3212100	0.9753000	-0.1040800	-0.2956300	1.1341800	-0.2096400	-0.3659000	1.0356600	-0.2390300	-0.4221900	0.9047000	-0.1515300	-0.2952400	1.0956200	-0.2363800	0.2040600	1.0768300	-0.2316800	0.2135700	0.9102500	-0.1880400	0.0869000
441	7.3333333	1.4217800	0.7302700	-0.0741800	1.4174900	0.7252000	0.0986300	1.2198800	0.4838400	0.3106200	1.3500800	0.2202700	0.3119700	1.4056200	0.7203000	-0.2471500	1.3494800	0.4556600	-0.3680500	1.3317800	0.1130400	-0.4771400	0.9294000	0.4867000	-0.0807400	0.9646800	0.4849000	0.0474000	1.2746800	0.2365800	0.1216000	0.9497700	-0.1592700	0.1065400	0.9248100	0.4962800	-0.2094700	1.2412100	0.2985700	-0.3279200	0.9758300	-0.1027400	-0.2957200	1.0997400	-0.2349000	-0.3898000	1.0388000	-0.2423000	-0.4231900	0.8980700	-0.1603200	-0.2942300	1.0930500	-0.2399300	0.2033600	1.0932500	-0.2199200	0.2030900	0.8992600	-0.1897300	0.0932600
442	7.3500000	1.4106500	0.7612300	-0.0679600	1.4018500	0.7532200	0.1103700	1.2021300	0.5279400	0.3089100	1.2988500	0.2507800	0.3292700	1.4034500	0.7591800	-0.2442400	1.3366100	0.5080200	-0.3623300	1.2750900	0.1517100	-0.4832400	0.9465400	0.5118200	-0.0838600	0.9613900	0.5018300	0.0445200	1.2793700	0.2436000	0.1180800	0.9484200	-0.1630300	0.1077500	0.9339900	0.5176000	-0.2132100	1.2428600	0.2883400	-0.3272700	0.9139100	-0.1506000	-0.3276900	1.0998600	-0.2381300	-0.3934500	1.0625100	-0.2351800	-0.4165000	0.8618400	-0.1896700	-0.3171400	1.0954100	-0.2362100	0.2040900	1.0674300	-0.2350100	0.2186500	0.9030700	-0.2055500	0.0971100
443	7.3666667	1.4012700	0.8004200	-0.0613200	1.3978400	0.7916400	0.1116100	1.1878400	0.5617300	0.2951600	1.2579500	0.2880900	0.3406400	1.3980700	0.8014000	-0.2431100	1.3065800	0.5573400	-0.3609000	1.2321400	0.1971400	-0.4901000	0.9398800	0.5308500	-0.0760300	0.9457700	0.5237600	0.0482900	1.2818800	0.2465500	0.1162800	0.9461100	-0.1645200	0.1108800	0.9477600	0.5367800	-0.1964400	1.2440000	0.2779000	-0.3225900	0.9189100	-0.1620200	-0.3281500	1.1107900	-0.2342400	-0.3847100	1.0707100	-0.2388500	-0.4115900	0.8294600	-0.2175400	-0.3369700	1.0919000	-0.2366800	0.2050200	1.0705800	-0.2339000	0.2180000	0.9016500	-0.2084200	0.0999700
444	7.3833333	1.3960700	0.8420700	-0.0596100	1.3967200	0.8346300	0.1175300	1.1819600	0.5955300	0.2911400	1.2167900	0.3297800	0.3457100	1.3996700	0.8397100	-0.2419400	1.2711000	0.5881800	-0.3628800	1.1915500	0.2491500	-0.4933800	0.9690000	0.5571400	-0.0662100	0.9635100	0.5452500	0.0521300	1.2831900	0.2517100	0.1144500	0.9428000	-0.1896000	0.1227200	0.9712100	0.5600100	-0.1866200	1.2533000	0.2766500	-0.3142900	0.9278900	-0.1543000	-0.3279600	1.1084300	-0.2370400	-0.3935900	1.0712100	-0.2371700	-0.4158300	0.8477300	-0.1987700	-0.3261800	1.0799900	-0.2426400	0.2136800	1.0628300	-0.2337700	0.2215900	0.9014600	-0.2211300	0.1056100
445	7.4000000	1.3968000	0.8771300	-0.0556900	1.3949900	0.8852900	0.1178600	1.1635900	0.6528500	0.2840400	1.1665400	0.3732000	0.3486600	1.3982800	0.8699300	-0.2381800	1.2098600	0.6128500	-0.3806100	1.1431900	0.3213400	-0.4846500	0.9911500	0.5729700	-0.0633300	0.9795800	0.5664100	0.0522700	1.2738800	0.2557000	0.1175800	0.9409500	-0.1918000	0.1249900	1.0018500	0.5763000	-0.1801200	1.2427300	0.2710800	-0.3159700	0.9286200	-0.1518700	-0.3270500	1.1111200	-0.2339700	-0.3887700	1.0711400	-0.2349800	-0.4156900	0.8528800	-0.1938400	-0.3241100	1.0809300	-0.2428700	0.2114300	1.0671300	-0.2340800	0.2200400	0.9046500	-0.2206400	0.1055700
446	7.4166667	1.4112000	0.9285000	-0.0481700	1.4114800	0.9429100	0.1256200	1.1475900	0.7051700	0.2804600	1.1253600	0.4311800	0.3478600	1.4108500	0.9113300	-0.2349600	1.2241500	0.6612400	-0.3650600	1.0890200	0.3731100	-0.4815600	0.9784400	0.5952800	-0.0584600	0.9927600	0.5965300	0.0586900	1.2750100	0.2609900	0.1157500	0.9358500	-0.1915500	0.1246400	0.9879000	0.5974700	-0.1790100	1.2257000	0.2690400	-0.3132300	0.9276000	-0.1469400	-0.3272800	1.1083700	-0.2335300	-0.3936100	1.0589000	-0.2367200	-0.4227100	0.8475500	-0.1929200	-0.3258200	1.0766700	-0.2452700	0.2152600	1.0667000	-0.2323400	0.2192600	0.9017300	-0.2188100	0.1048100
447	7.4333333	1.4112200	0.9811000	-0.0481200	1.3890600	0.9846200	0.1308200	1.1351900	0.7719800	0.2740000	1.0800500	0.4941500	0.3459900	1.4117000	0.9660000	-0.2301700	1.1889700	0.7211500	-0.3585300	1.0476100	0.4465900	-0.4718300	0.9861700	0.6281200	-0.0611600	0.9988000	0.6215500	0.0550000	1.2573700	0.2579800	0.1143700	0.9382200	-0.1889600	0.1245500	0.9958400	0.6287700	-0.1827200	1.2229600	0.2760600	-0.3113500	0.9285700	-0.1480900	-0.3270800	1.1111800	-0.2324200	-0.3891600	1.0629400	-0.2359700	-0.4196300	0.8479100	-0.1914700	-0.3263300	1.0706200	-0.2498000	0.2169200	1.0632500	-0.2371800	0.2220400	0.9031700	-0.2200000	0.1055900
448	7.4500000	1.4110200	1.0366600	-0.0400800	1.3987500	1.0387300	0.1387700	1.1240000	0.8212300	0.2674100	1.0549700	0.5397900	0.3416600	1.4093600	1.0249300	-0.2309000	1.1717800	0.7834900	-0.3666300	1.0277000	0.5328900	-0.4524200	1.0044100	0.6563100	-0.0638900	1.0138400	0.6526800	0.0556800	1.2497800	0.2571800	0.1092900	0.9350900	-0.1914200	0.1245400	1.0050700	0.6599400	-0.1834600	1.2216000	0.2804900	-0.3080100	0.9276100	-0.1470000	-0.3273000	1.1123600	-0.2315000	-0.3907600	1.0671300	-0.2352800	-0.4180400	0.8430500	-0.1925900	-0.3283600	1.0827600	-0.2454900	0.2157800	1.0735000	-0.2331200	0.2240800	0.8998400	-0.2201900	0.1055500
449	7.4666667	1.3815000	1.0828300	-0.0392000	1.3793900	1.0852500	0.1416800	1.1228300	0.8829600	0.2632300	1.0235300	0.5982900	0.3292200	1.4022300	1.0856900	-0.2265800	1.1449300	0.8590100	-0.3596600	0.9970500	0.6102600	-0.4397600	1.0211400	0.6790300	-0.0668700	1.0216800	0.6721500	0.0557000	1.2404300	0.2683300	0.1069600	0.9387800	-0.1829600	0.1211800	1.0185800	0.6915700	-0.1890300	1.2140300	0.2918300	-0.2942300	0.9282900	-0.1482700	-0.3263400	1.1196500	-0.2261600	-0.3918900	1.0761400	-0.2302400	-0.4205300	0.8431500	-0.1940300	-0.3277900	1.0813900	-0.2415700	0.2110500	1.0722200	-0.2306100	0.2211400	0.9013800	-0.2140500	0.1027900
450	7.4833333	1.3644600	1.1389500	-0.0426700	1.3598300	1.1330000	0.1375300	1.1163300	0.9432600	0.2626500	1.0001700	0.6650400	0.3198100	1.3921700	1.1475300	-0.2273200	1.1203500	0.9295800	-0.3544400	0.9665900	0.6773100	-0.4296100	1.0354400	0.7102000	-0.0627300	1.0445700	0.7040000	0.0564600	1.2362100	0.2829900	0.1051700	0.9365900	-0.1723800	0.1129900	1.0404100	0.7184900	-0.1879700	1.1926500	0.2889300	-0.2928000	0.9184400	-0.1481800	-0.3312300	1.1166900	-0.2275300	-0.3922600	1.0843400	-0.2304200	-0.4171500	0.8387600	-0.1921900	-0.3351900	1.0917000	-0.2403600	0.2060400	1.0719500	-0.2311500	0.2206500	0.9087400	-0.1994600	0.0875300
451	7.5000000	1.3601600	1.1953800	-0.0446300	1.3568300	1.1906300	0.1470900	1.1103400	0.9844400	0.2543200	0.9795400	0.6910700	0.3013900	1.3912100	1.2087200	-0.2310300	1.1364400	1.0043000	-0.3372500	0.9540500	0.7463800	-0.4120900	1.0571300	0.7384700	-0.0596300	1.0800700	0.7290200	0.0586200	1.2174400	0.2907500	0.0997200	0.9426200	-0.1677000	0.1104800	1.0650500	0.7448300	-0.1839200	1.1851300	0.3170000	-0.2838400	0.9283600	-0.1404200	-0.3306200	1.1194700	-0.2245000	-0.3875500	1.0846000	-0.2291900	-0.4158100	0.8427800	-0.1783700	-0.3315100	1.0935800	-0.2362100	0.2033700	1.0682700	-0.2338500	0.2194600	0.9108400	-0.1953700	0.0877300
452	7.5166667	1.3590700	1.2492200	-0.0405500	1.3466400	1.2391300	0.1502700	1.1129500	1.0234000	0.2494700	1.0061200	0.7501300	0.2927700	1.3783100	1.2657000	-0.2296300	1.1104200	1.0643600	-0.3258100	0.9431400	0.8173100	-0.4002900	1.0835700	0.7739200	-0.0619400	1.0980800	0.7656800	0.0618400	1.2013500	0.3045200	0.0956200	0.9562300	-0.1496200	0.0981700	1.0804000	0.7828000	-0.1860900	1.1465900	0.3337900	-0.2828200	0.9367800	-0.1220000	-0.3319700	1.1086400	-0.2295000	-0.3920400	1.0727500	-0.2324500	-0.4235500	0.8617800	-0.1661500	-0.3275800	1.0879700	-0.2389500	0.2084100	1.0676100	-0.2339300	0.2190600	0.9175300	-0.1825900	0.0802600
453	7.5333333	1.3558700	1.3170000	-0.0347300	1.3680000	1.3129500	0.1656600	1.1099500	1.0910700	0.2443100	0.9651500	0.8261900	0.2869700	1.3696100	1.3274200	-0.2292800	1.1151200	1.1245600	-0.3216200	0.9480000	0.8928800	-0.3781400	1.1005300	0.8078800	-0.0565500	1.1183300	0.8017000	0.0682200	1.1695500	0.3242200	0.0895500	0.9627000	-0.1359300	0.1006000	1.0922400	0.8168000	-0.1837100	1.1345300	0.3614100	-0.2758800	0.9601700	-0.0977500	-0.3369300	1.1073300	-0.2339700	-0.3905500	1.0810100	-0.2320400	-0.4186500	0.8850800	-0.1350600	-0.3335800	1.0770800	-0.2441400	0.2094600	1.0678400	-0.2352600	0.2198700	0.9333900	-0.1540900	0.0747100
454	7.5500000	1.3575900	1.3766600	-0.0365300	1.3610200	1.3685300	0.1666500	1.1054200	1.1262300	0.2421100	0.9725400	0.8849300	0.2846700	1.3600100	1.3875500	-0.2297000	1.1149000	1.1860400	-0.3224800	0.9418800	0.9500100	-0.3727100	1.1349700	0.8546100	-0.0555300	1.1372600	0.8405100	0.0658800	1.1489100	0.3498400	0.0875600	0.9808200	-0.1137100	0.1078400	1.1385600	0.8639400	-0.1828200	1.1076500	0.3950000	-0.2631900	0.9726600	-0.0650600	-0.3385600	1.1046800	-0.2351400	-0.3996400	1.0771700	-0.2258700	-0.4258700	0.9224400	-0.1076300	-0.3284200	1.0237000	-0.2359800	0.1815500	1.0517500	-0.2173600	0.2193100	0.9300000	-0.1465900	0.0898200
455	7.5666667	1.3537500	1.4339600	-0.0347900	1.3636200	1.4275600	0.1674100	1.1221300	1.1647500	0.2375800	0.9803700	0.9370700	0.2859100	1.3632500	1.4448600	-0.2234100	1.1200100	1.2368300	-0.3218600	0.9347400	0.9970700	-0.3660100	1.1714400	0.8922400	-0.0621100	1.1865200	0.8865400	0.0631100	1.1122300	0.3865400	0.0834900	0.9989300	-0.0837900	0.1180600	1.1774900	0.9040000	-0.1791900	1.0963600	0.4394400	-0.2423800	1.0067500	-0.0186300	-0.3405200	1.1211500	-0.2111000	-0.3804300	1.0515200	-0.2089400	-0.4368300	1.0056700	-0.0529600	-0.3209700	1.0755800	-0.2295000	0.1784900	1.0497800	-0.1916400	0.2126400	0.9620200	-0.1159900	0.1011600
